<svg width="800" height="800" viewBox="0 0 800 800" fill="none" xmlns="http://www.w3.org/2000/svg">
<g clip-path="url(#clip0_598_1353)">
<path d="M182.894 456.822C186.912 460.869 191.36 464.284 195.98 467.254L506.053 777.313C536.316 807.547 585.362 807.561 615.639 777.299C645.901 747.051 645.901 697.99 615.639 667.714L348.585 400.688L616.988 132.256C647.265 102.023 647.265 52.9481 616.988 22.6711C601.849 7.56134 582.033 -0.000694313 562.216 -0.000694313C542.4 -0.000694313 522.541 7.56138 507.445 22.6998L195.98 334.122C191.36 337.092 186.926 340.493 182.894 344.554C167.397 360.051 159.964 380.398 160.308 400.688C159.949 420.992 167.397 441.368 182.894 456.822Z" fill="black"/>
</g>
<defs>
<clipPath id="clip0_598_1353">
<rect width="800" height="800" fill="white" transform="matrix(-1 0 0 -1 800 800)"/>
</clipPath>
</defs>
</svg>
